<svg viewBox="0 0 760 380" xmlns="http://www.w3.org/2000/svg" font-family="ui-sans-serif,-apple-system,Segoe UI,Roboto,sans-serif" role="img" aria-label="Resident memory stays flat and CPU stays low across a continuous soak run.">
<defs><linearGradient id="rssfill" x1="0" y1="0" x2="0" y2="1"><stop offset="0" stop-color="#2f6bfb" stop-opacity="0.28"/><stop offset="1" stop-color="#2f6bfb" stop-opacity="0.02"/></linearGradient><linearGradient id="rssline" x1="0" y1="0" x2="1" y2="0"><stop offset="0" stop-color="#5b5be6"/><stop offset="1" stop-color="#2f6bfb"/></linearGradient></defs>
<line x1="60" y1="46.0" x2="702" y2="46.0" stroke="rgba(255,255,255,0.09)" stroke-width="1"/>
<text x="50" y="50.0" text-anchor="end" font-size="11" fill="#7b839d">50</text>
<text x="712" y="50.0" text-anchor="start" font-size="11" fill="#7b839d">10%</text>
<line x1="60" y1="117.5" x2="702" y2="117.5" stroke="rgba(255,255,255,0.09)" stroke-width="1"/>
<text x="50" y="121.5" text-anchor="end" font-size="11" fill="#7b839d">38</text>
<text x="712" y="121.5" text-anchor="start" font-size="11" fill="#7b839d">8%</text>
<line x1="60" y1="189.0" x2="702" y2="189.0" stroke="rgba(255,255,255,0.09)" stroke-width="1"/>
<text x="50" y="193.0" text-anchor="end" font-size="11" fill="#7b839d">25</text>
<text x="712" y="193.0" text-anchor="start" font-size="11" fill="#7b839d">5%</text>
<line x1="60" y1="260.5" x2="702" y2="260.5" stroke="rgba(255,255,255,0.09)" stroke-width="1"/>
<text x="50" y="264.5" text-anchor="end" font-size="11" fill="#7b839d">12</text>
<text x="712" y="264.5" text-anchor="start" font-size="11" fill="#7b839d">2%</text>
<line x1="60" y1="332.0" x2="702" y2="332.0" stroke="rgba(255,255,255,0.09)" stroke-width="1"/>
<text x="50" y="336.0" text-anchor="end" font-size="11" fill="#7b839d">0</text>
<text x="712" y="336.0" text-anchor="start" font-size="11" fill="#7b839d">0%</text>
<text x="60.0" y="354.0" text-anchor="middle" font-size="11" fill="#7b839d">0m</text>
<text x="220.5" y="354.0" text-anchor="middle" font-size="11" fill="#7b839d">5m</text>
<text x="381.0" y="354.0" text-anchor="middle" font-size="11" fill="#7b839d">10m</text>
<text x="541.5" y="354.0" text-anchor="middle" font-size="11" fill="#7b839d">15m</text>
<text x="702.0" y="354.0" text-anchor="middle" font-size="11" fill="#7b839d">20m</text>
<polyline points="60.0,286.9 64.6,288.4 69.3,285.4 73.9,284.5 78.5,286.9 83.1,296.7 87.7,298.1 92.3,296.8 97.0,294.6 101.6,297.4 106.2,297.2 110.8,297.7 115.4,293.1 120.0,290.8 124.7,285.3 129.3,286.0 133.9,284.9 138.5,281.0 143.1,286.8 147.8,286.0 152.4,286.8 157.0,288.4 161.6,288.0 166.2,288.8 170.8,286.4 175.5,283.4 180.1,292.6 184.7,292.2 189.3,296.9 194.0,295.7 198.6,285.9 203.2,280.5 207.8,280.4 212.4,283.4 217.0,283.2 221.7,285.0 226.3,286.9 230.9,285.9 235.5,280.5 240.1,289.1 244.8,291.8 249.4,290.2 254.0,292.9 258.6,296.5 263.2,291.3 267.8,288.8 272.5,284.7 277.1,269.7 281.7,273.0 286.3,279.1 291.0,269.0 295.6,276.7 300.2,273.9 304.8,275.0 309.4,289.6 314.0,255.0 318.6,265.3 323.2,278.9 327.9,279.6 332.5,257.6 337.1,252.5 341.7,279.1 346.4,282.4 351.0,278.8 355.6,284.2 360.2,285.4 364.8,273.3 369.5,254.6 374.1,264.8 378.7,275.1 383.3,276.7 387.9,275.5 392.5,284.9 397.2,294.4 401.8,296.3 406.4,296.9 411.0,250.4 415.6,249.5 420.2,260.7 424.9,277.5 429.5,251.3 434.1,244.6 438.7,252.1 443.4,247.4 448.0,249.0 452.6,258.7 457.2,260.4 461.8,260.8 466.4,262.7 471.1,263.5 475.7,262.8 480.3,271.9 484.9,274.2 489.5,278.3 494.2,281.7 498.8,283.2 503.4,279.5 508.0,281.1 512.6,284.5 517.2,286.7 521.9,282.0 526.5,291.2 531.1,293.5 535.7,283.5 540.4,269.6 545.0,269.1 549.6,269.6 554.2,281.2 558.8,285.2 563.4,287.3 568.1,285.4 572.7,276.2 577.3,276.2 581.9,281.4 586.5,292.1 591.1,286.2 595.8,272.3 600.4,277.8 605.0,263.4 609.6,266.3 614.2,271.0 618.9,284.8 623.5,273.7 628.1,268.5 632.7,266.5 637.4,269.5 642.0,269.7 646.6,267.1 651.2,272.7 655.8,261.9 660.4,238.7 665.1,227.9 669.7,254.7 674.3,270.9 678.9,279.0 683.5,273.6 688.1,239.4 692.8,234.0 697.4,247.6 702.0,246.5" fill="none" stroke="#38cf74" stroke-width="1.6" stroke-opacity="0.85" stroke-linejoin="round"/>
<polygon points="60,332 60.0,142.3 64.6,141.7 69.3,141.6 73.9,141.6 78.5,141.5 83.1,141.5 87.7,141.4 92.3,141.2 97.0,141.0 101.6,140.9 106.2,140.9 110.8,140.8 115.4,140.8 120.0,140.7 124.7,140.5 129.3,140.3 133.9,140.2 138.5,140.0 143.1,140.0 147.8,139.9 152.4,139.9 157.0,139.8 161.6,139.7 166.2,139.6 170.8,139.5 175.5,139.4 180.1,139.4 184.7,139.3 189.3,139.2 194.0,139.2 198.6,139.2 203.2,139.2 207.8,138.8 212.4,138.8 217.0,138.8 221.7,138.8 226.3,138.8 230.9,138.8 235.5,138.8 240.1,138.8 244.8,138.7 249.4,138.7 254.0,138.7 258.6,138.7 263.2,138.7 267.8,138.7 272.5,138.7 277.1,138.6 281.7,138.4 286.3,138.3 291.0,138.3 295.6,138.3 300.2,138.3 304.8,138.3 309.4,138.3 314.0,138.3 318.6,138.2 323.2,138.2 327.9,138.2 332.5,138.2 337.1,138.2 341.7,138.2 346.4,138.2 351.0,138.0 355.6,137.4 360.2,137.4 364.8,137.4 369.5,137.4 374.1,137.4 378.7,137.4 383.3,137.4 387.9,137.4 392.5,137.3 397.2,137.3 401.8,137.2 406.4,137.2 411.0,137.2 415.6,137.2 420.2,137.2 424.9,137.2 429.5,137.2 434.1,137.2 438.7,137.2 443.4,137.2 448.0,137.2 452.6,137.2 457.2,137.2 461.8,137.1 466.4,137.1 471.1,137.1 475.7,137.1 480.3,137.1 484.9,137.0 489.5,136.8 494.2,136.8 498.8,136.6 503.4,136.4 508.0,136.4 512.6,136.4 517.2,136.4 521.9,136.4 526.5,136.4 531.1,136.4 535.7,136.3 540.4,136.3 545.0,136.3 549.6,136.3 554.2,136.3 558.8,136.3 563.4,136.3 568.1,136.3 572.7,136.2 577.3,136.2 581.9,136.2 586.5,136.2 591.1,136.2 595.8,136.2 600.4,136.2 605.0,136.2 609.6,136.1 614.2,136.1 618.9,136.1 623.5,136.1 628.1,136.1 632.7,136.1 637.4,136.1 642.0,136.1 646.6,135.2 651.2,134.5 655.8,134.5 660.4,134.5 665.1,134.5 669.7,134.5 674.3,134.5 678.9,134.5 683.5,134.5 688.1,134.5 692.8,134.5 697.4,134.5 702.0,134.4 702,332" fill="url(#rssfill)"/>
<polyline points="60.0,142.3 64.6,141.7 69.3,141.6 73.9,141.6 78.5,141.5 83.1,141.5 87.7,141.4 92.3,141.2 97.0,141.0 101.6,140.9 106.2,140.9 110.8,140.8 115.4,140.8 120.0,140.7 124.7,140.5 129.3,140.3 133.9,140.2 138.5,140.0 143.1,140.0 147.8,139.9 152.4,139.9 157.0,139.8 161.6,139.7 166.2,139.6 170.8,139.5 175.5,139.4 180.1,139.4 184.7,139.3 189.3,139.2 194.0,139.2 198.6,139.2 203.2,139.2 207.8,138.8 212.4,138.8 217.0,138.8 221.7,138.8 226.3,138.8 230.9,138.8 235.5,138.8 240.1,138.8 244.8,138.7 249.4,138.7 254.0,138.7 258.6,138.7 263.2,138.7 267.8,138.7 272.5,138.7 277.1,138.6 281.7,138.4 286.3,138.3 291.0,138.3 295.6,138.3 300.2,138.3 304.8,138.3 309.4,138.3 314.0,138.3 318.6,138.2 323.2,138.2 327.9,138.2 332.5,138.2 337.1,138.2 341.7,138.2 346.4,138.2 351.0,138.0 355.6,137.4 360.2,137.4 364.8,137.4 369.5,137.4 374.1,137.4 378.7,137.4 383.3,137.4 387.9,137.4 392.5,137.3 397.2,137.3 401.8,137.2 406.4,137.2 411.0,137.2 415.6,137.2 420.2,137.2 424.9,137.2 429.5,137.2 434.1,137.2 438.7,137.2 443.4,137.2 448.0,137.2 452.6,137.2 457.2,137.2 461.8,137.1 466.4,137.1 471.1,137.1 475.7,137.1 480.3,137.1 484.9,137.0 489.5,136.8 494.2,136.8 498.8,136.6 503.4,136.4 508.0,136.4 512.6,136.4 517.2,136.4 521.9,136.4 526.5,136.4 531.1,136.4 535.7,136.3 540.4,136.3 545.0,136.3 549.6,136.3 554.2,136.3 558.8,136.3 563.4,136.3 568.1,136.3 572.7,136.2 577.3,136.2 581.9,136.2 586.5,136.2 591.1,136.2 595.8,136.2 600.4,136.2 605.0,136.2 609.6,136.1 614.2,136.1 618.9,136.1 623.5,136.1 628.1,136.1 632.7,136.1 637.4,136.1 642.0,136.1 646.6,135.2 651.2,134.5 655.8,134.5 660.4,134.5 665.1,134.5 669.7,134.5 674.3,134.5 678.9,134.5 683.5,134.5 688.1,134.5 692.8,134.5 697.4,134.5 702.0,134.4" fill="none" stroke="url(#rssline)" stroke-width="2.4" stroke-linejoin="round" stroke-linecap="round"/>
<text x="60" y="24" font-size="13" font-weight="600" fill="#eef1fb">Resident memory (MB)</text>
<text x="702" y="24" text-anchor="end" font-size="13" font-weight="600" fill="#38cf74">CPU (%)</text>
</svg>
